<mxfile host="app.diagrams.net">
  <diagram name="Page-1">
    <mxGraphModel dx="1048" dy="600" grid="1" gridSize="10" guides="1" tooltips="1" connect="1" arrows="1" fold="1" page="1" pageScale="1" pageWidth="827" pageHeight="1169" math="0" shadow="0">
      <root>
        <mxCell id="0" />
        <mxCell id="1" parent="0" />
        <mxCell id="2" value="Member" style="rounded=1;whiteSpace=wrap;html=1;fillColor=#ffffff;strokeColor=#000000;" vertex="1" parent="1">
          <mxGeometry x="100" y="50" width="120" height="60" as="geometry" />
        </mxCell>
        <mxCell id="3" value="MemberID (PK)&lt;br/&gt;Name&lt;br/&gt;Email&lt;br/&gt;JoinDate" style="text;html=1;strokeColor=none;fillColor=none;align=center;verticalAlign=middle;whiteSpace=wrap;rounded=0;" vertex="1" parent="1">
          <mxGeometry x="100" y="110" width="120" height="80" as="geometry" />
        </mxCell>
        <mxCell id="4" value="Book" style="rounded=1;whiteSpace=wrap;html=1;fillColor=#ffffff;strokeColor=#000000;" vertex="1" parent="1">
          <mxGeometry x="300" y="50" width="120" height="60" as="geometry" />
        </mxCell>
        <mxCell id="5" value="BookID (PK)&lt;br/&gt;Title&lt;br/&gt;Author&lt;br/&gt;PublishedYear" style="text;html=1;strokeColor=none;fillColor=none;align=center;verticalAlign=middle;whiteSpace=wrap;rounded=0;" vertex="1" parent="1">
          <mxGeometry x="300" y="110" width="120" height="80" as="geometry" />
        </mxCell>
        <mxCell id="6" value="Loan" style="rounded=1;whiteSpace=wrap;html=1;fillColor=#ffffff;strokeColor=#000000;" vertex="1" parent="1">
          <mxGeometry x="200" y="300" width="120" height="60" as="geometry" />
        </mxCell>
        <mxCell id="7" value="LoanID (PK)&lt;br/&gt;BookID (FK)&lt;br/&gt;MemberID (FK)&lt;br/&gt;LoanDate&lt;br/&gt;ReturnDate" style="text;html=1;strokeColor=none;fillColor=none;align=center;verticalAlign=middle;whiteSpace=wrap;rounded=0;" vertex="1" parent="1">
          <mxGeometry x="200" y="360" width="120" height="100" as="geometry" />
        </mxCell>
        <mxCell id="8" edge="1" parent="1" source="3" target="7" style="endArrow=blockThin;strokeColor=#000000;strokeWidth=2;">
          <mxGeometry relative="1" as="geometry" />
        </mxCell>
        <mxCell id="9" edge="1" parent="1" source="5" target="7" style="endArrow=blockThin;strokeColor=#000000;strokeWidth=2;">
          <mxGeometry relative="1" as="geometry" />
        </mxCell>
      </root>
    </mxGraphModel>
  </diagram>
</mxfile>